<svg width="392" height="304" viewBox="0 0 392 304" fill="none" xmlns="http://www.w3.org/2000/svg">
<path d="M297.921 163.47C302.523 153.815 308.506 143.109 314.16 135.753C314.16 135.753 311.004 136.212 306.797 137.198C302.457 138.183 298.513 139.299 296.015 140.219C289.9 142.452 285.101 146.064 282.734 153.421C283.195 152.041 280.302 159.923 278.79 168.724C277.015 177.722 276.094 185.998 276.094 185.998C279.382 188.297 282.8 190.464 285.824 192.237C284.378 198.871 283.589 209.708 285.101 218.181C287.862 211.876 290.558 205.833 293.385 200.25C295.949 195.127 298.053 191.318 300.682 186.983C297.527 184.421 294.503 181.729 291.413 178.839C292.793 175.095 295.094 169.315 297.921 163.47Z" fill="#FBC300"/>
<path d="M293.319 200.184C290.558 205.767 287.797 211.744 285.035 218.115V218.181C285.035 218.181 292.004 207.475 296.738 200.644C300.748 194.864 301.931 193.222 301.931 193.222L300.617 186.917C297.987 191.252 295.883 195.061 293.319 200.184Z" fill="#DC9B01"/>
<path d="M314.16 135.753C308.506 143.175 302.523 153.815 297.921 163.47C295.094 169.381 292.793 175.095 291.347 178.839C292.596 180.021 293.911 181.203 295.16 182.32C297.066 178.773 300.814 171.745 304.627 165.177C310.675 154.734 316.987 145.211 316.987 145.211L314.16 135.753Z" fill="#DC9B01"/>
<path d="M318.96 216.211C318.96 216.343 318.828 216.408 318.762 216.408L317.447 216.474C317.316 216.474 317.25 216.408 317.25 216.277L317.908 211.547L313.305 215.686L313.174 216.474C313.174 216.605 313.042 216.671 312.977 216.671L311.662 216.737C311.53 216.737 311.464 216.671 311.464 216.54L312.451 209.183C312.451 209.051 312.582 208.986 312.714 208.986L314.029 208.92C314.16 208.92 314.226 208.986 314.226 209.117L313.568 213.847L318.171 209.708L318.302 208.92C318.302 208.789 318.434 208.723 318.565 208.723L319.88 208.657C320.012 208.657 320.077 208.723 320.077 208.854L318.96 216.211Z" fill="white"/>
<path d="M329.216 208.132C329.347 208.132 329.413 208.198 329.413 208.329L328.427 215.686C328.427 215.817 328.295 215.883 328.229 215.883L326.98 215.949C326.849 215.949 326.783 215.883 326.783 215.752L327.177 212.796L323.364 212.993L322.969 215.949C322.969 216.08 322.838 216.146 322.706 216.146L321.457 216.211C321.326 216.211 321.26 216.146 321.26 216.014L322.18 208.723C322.18 208.592 322.312 208.526 322.443 208.526L323.693 208.46C323.824 208.46 323.89 208.526 323.89 208.657L323.495 211.482L327.309 211.285L327.703 208.395C327.703 208.263 327.835 208.198 327.966 208.198L329.216 208.132Z" fill="white"/>
<path d="M337.828 207.672C337.96 207.672 338.025 207.738 338.025 207.869L337.894 208.986C337.894 209.117 337.762 209.183 337.631 209.248L335.067 209.38L334.278 215.423C334.278 215.554 334.146 215.62 334.08 215.62L332.831 215.686C332.7 215.686 332.634 215.62 332.634 215.489L333.423 209.446L330.859 209.577C330.727 209.577 330.661 209.511 330.661 209.38L330.793 208.263C330.793 208.132 330.924 208.066 330.99 208.066L337.828 207.672Z" fill="white"/>
<path d="M344.336 213.255C344.468 213.19 344.599 213.19 344.599 213.321L344.928 214.175C344.994 214.306 344.928 214.372 344.797 214.438C344.139 214.898 342.956 215.357 341.838 215.423C340.589 215.489 339.602 215.095 339.011 214.372C338.419 213.715 338.222 212.664 338.353 211.482C338.485 210.365 339.011 209.314 339.8 208.592C340.523 207.869 341.509 207.409 342.693 207.344C344.008 207.278 344.862 207.738 345.388 208.46C345.849 209.183 345.914 210.234 345.717 211.416C345.651 211.547 345.586 211.679 345.454 211.679L340.063 211.942C340.063 212.533 340.194 212.993 340.457 213.321C340.786 213.781 341.378 214.044 342.167 213.978C342.956 213.912 343.679 213.649 344.336 213.255ZM344.205 210.496C344.271 209.971 344.139 209.511 343.876 209.183C343.613 208.854 343.153 208.657 342.495 208.657C341.838 208.723 341.312 208.986 340.917 209.38C340.589 209.708 340.326 210.234 340.26 210.694L344.205 210.496Z" fill="white"/>
<path d="M350.713 206.884C352.094 206.818 353.212 207.147 353.869 207.869C354.461 208.526 354.79 209.445 354.593 210.693C354.395 211.941 353.935 212.861 353.278 213.518C352.357 214.437 351.174 214.897 350.122 214.897C349.53 214.897 349.135 214.897 348.675 214.766L348.149 218.641C348.149 218.772 348.018 218.838 347.952 218.838L346.637 218.903C346.505 218.903 346.44 218.838 346.44 218.706L347.952 207.475C347.952 207.344 348.018 207.278 348.215 207.212C348.872 207.081 349.859 206.95 350.713 206.884ZM348.938 213.321C349.267 213.518 349.661 213.518 350.187 213.518C350.779 213.518 351.437 213.321 352.028 212.795C352.489 212.401 352.817 211.679 352.949 210.825C353.08 210.037 352.883 209.38 352.554 208.986C352.16 208.526 351.502 208.329 350.713 208.329C350.319 208.329 349.924 208.395 349.596 208.46L348.938 213.321Z" fill="white"/>
<path d="M363.994 206.293C364.126 206.293 364.191 206.358 364.191 206.49L363.205 213.847C363.205 213.978 363.074 214.044 363.008 214.044L361.759 214.109C361.627 214.109 361.561 214.044 361.561 213.912L361.956 210.957L358.142 211.154L357.748 214.109C357.748 214.241 357.616 214.307 357.485 214.307L356.236 214.372C356.104 214.372 356.038 214.307 356.038 214.175L357.025 206.818C357.025 206.687 357.156 206.621 357.288 206.621L358.537 206.555C358.668 206.555 358.734 206.621 358.734 206.753L358.34 209.643L362.153 209.446L362.548 206.555C362.548 206.424 362.679 206.358 362.811 206.358L363.994 206.293Z" fill="white"/>
<path d="M371.423 211.811C371.554 211.745 371.686 211.745 371.686 211.876L372.015 212.73C372.08 212.862 372.015 212.927 371.883 212.993C371.226 213.453 370.042 213.913 368.924 213.978C367.675 214.044 366.689 213.65 366.097 212.927C365.505 212.27 365.308 211.219 365.44 210.037C365.571 208.92 366.097 207.869 366.886 207.147C367.609 206.424 368.596 205.964 369.779 205.899C371.094 205.833 371.949 206.293 372.475 207.015C372.935 207.738 373.001 208.789 372.804 209.971C372.738 210.103 372.672 210.234 372.541 210.234L367.149 210.497C367.149 211.088 367.281 211.548 367.544 211.876C367.872 212.336 368.464 212.599 369.253 212.533C370.108 212.533 370.831 212.205 371.423 211.811ZM371.291 209.117C371.357 208.592 371.226 208.132 370.963 207.804C370.7 207.475 370.239 207.278 369.582 207.278C368.924 207.344 368.398 207.607 368.004 208.001C367.675 208.329 367.412 208.855 367.346 209.314L371.291 209.117Z" fill="white"/>
<path d="M381.284 205.439C381.416 205.439 381.482 205.505 381.482 205.636L381.35 206.753C381.35 206.884 381.219 206.95 381.087 207.015L378.523 207.147L377.734 213.19C377.734 213.321 377.602 213.387 377.537 213.387L376.287 213.453C376.156 213.453 376.09 213.387 376.09 213.256L376.879 207.212L374.315 207.344C374.183 207.344 374.118 207.278 374.118 207.147L374.249 206.03C374.249 205.899 374.381 205.833 374.446 205.833L381.284 205.439Z" fill="white"/>
<path d="M125.74 215.619C125.871 215.619 125.937 215.685 125.937 215.816L125.806 216.999C125.806 217.13 125.674 217.196 125.543 217.196L120.151 217.458L119.757 220.545L122.124 220.414C122.913 220.348 123.833 220.414 124.491 220.742C125.345 221.136 125.871 221.859 125.674 223.304C125.477 224.683 124.754 225.537 123.767 226.062C123.044 226.456 122.189 226.653 121.4 226.653L117.324 226.851C117.258 226.851 117.127 226.785 117.127 226.653L118.507 216.079C118.507 215.948 118.639 215.882 118.705 215.882L125.74 215.619ZM123.176 222.122C122.847 221.99 122.321 221.925 121.795 221.925L119.559 222.056L119.099 225.406L121.466 225.274C121.992 225.274 122.452 225.143 122.913 224.88C123.439 224.552 123.833 224.092 123.899 223.435C123.899 222.778 123.702 222.319 123.176 222.122Z" fill="white"/>
<path d="M129.224 222.056L131.196 221.925C132.116 221.859 132.84 222.056 133.234 222.582C133.497 222.91 133.629 223.37 133.563 223.961C133.497 224.684 133.168 225.143 132.708 225.538C132.182 225.997 131.459 226.194 130.604 226.26L127.12 226.457C126.988 226.457 126.922 226.391 126.922 226.26L127.843 219.297C127.843 219.232 127.974 219.1 128.106 219.1L129.355 219.034C129.487 219.034 129.552 219.1 129.552 219.232L129.224 222.056ZM131.788 223.436C131.59 223.238 131.196 223.173 130.67 223.173L129.092 223.238L128.829 225.143L130.539 225.078C130.933 225.078 131.327 224.946 131.656 224.749C131.853 224.552 131.985 224.355 132.051 224.027C132.051 223.764 131.985 223.567 131.788 223.436ZM136.785 218.64C136.916 218.64 136.982 218.706 136.982 218.837L136.061 225.8C136.061 225.932 135.93 225.997 135.798 225.997L134.549 226.063C134.483 226.063 134.352 225.997 134.352 225.866L135.272 218.903C135.272 218.837 135.404 218.706 135.47 218.706L136.785 218.64Z" fill="white"/>
<path d="M143.621 223.896C143.753 223.764 143.884 223.83 143.95 223.896L144.279 224.749C144.345 224.815 144.279 224.947 144.147 225.012C143.49 225.472 142.635 225.735 141.715 225.8C140.465 225.866 139.479 225.538 138.887 224.815C138.361 224.224 138.098 223.304 138.296 222.188C138.427 221.268 138.822 220.414 139.413 219.757C140.268 218.772 141.517 218.246 142.767 218.181C143.687 218.115 144.476 218.378 145.002 218.706C145.068 218.772 145.134 218.903 145.068 218.969L144.476 219.889C144.41 220.02 144.279 220.02 144.147 219.954C143.621 219.626 143.161 219.495 142.635 219.56C141.912 219.626 141.254 219.889 140.794 220.414C140.4 220.874 140.071 221.399 140.005 222.056C139.939 222.779 140.071 223.37 140.4 223.764C140.728 224.158 141.32 224.355 142.043 224.355C142.504 224.421 143.03 224.29 143.621 223.896Z" fill="white"/>
<path d="M152.563 217.852C152.694 217.852 152.76 217.918 152.76 218.049L152.629 219.1C152.629 219.232 152.497 219.298 152.366 219.298L149.867 219.429L149.078 225.078C149.078 225.209 148.947 225.275 148.881 225.275L147.632 225.341C147.5 225.341 147.434 225.275 147.434 225.144L148.223 219.495L145.725 219.626C145.659 219.626 145.528 219.56 145.593 219.429L145.725 218.378C145.725 218.312 145.856 218.181 145.922 218.181L152.563 217.852Z" fill="white"/>
<path d="M156.573 217.524C157.888 217.458 158.94 217.721 159.597 218.443C160.189 219.034 160.452 219.888 160.321 221.07C160.189 222.253 159.729 223.107 159.071 223.763C158.217 224.617 157.033 225.011 156.047 225.077C155.521 225.077 155.061 225.077 154.666 224.946L154.206 228.558C154.206 228.624 154.074 228.755 154.009 228.755L152.759 228.821C152.628 228.821 152.562 228.755 152.562 228.624L153.943 218.049C153.943 217.918 154.009 217.852 154.206 217.786C154.863 217.655 155.718 217.524 156.573 217.524ZM154.863 223.566C155.192 223.698 155.587 223.763 156.047 223.763C156.573 223.763 157.23 223.566 157.756 223.041C158.217 222.647 158.545 221.99 158.611 221.136C158.743 220.348 158.545 219.823 158.217 219.428C157.822 218.969 157.23 218.772 156.507 218.837C156.178 218.837 155.784 218.903 155.389 218.969L154.863 223.566Z" fill="white"/>
<path d="M163.805 220.217L165.777 220.086C166.698 220.02 167.421 220.217 167.815 220.743C168.078 221.071 168.21 221.531 168.144 222.122C168.078 222.845 167.75 223.305 167.289 223.699C166.763 224.158 166.04 224.356 165.185 224.421L161.701 224.618C161.569 224.618 161.503 224.553 161.503 224.421L162.424 217.458C162.424 217.393 162.555 217.261 162.687 217.261L163.936 217.196C164.068 217.196 164.133 217.261 164.133 217.393L163.805 220.217ZM166.369 221.597C166.172 221.4 165.777 221.334 165.251 221.334L163.673 221.4L163.41 223.305L165.12 223.239C165.514 223.239 165.909 223.107 166.237 222.91C166.435 222.713 166.566 222.516 166.632 222.188C166.566 221.991 166.566 221.728 166.369 221.597ZM171.366 216.867C171.497 216.867 171.563 216.933 171.563 217.064L170.643 224.027C170.643 224.158 170.511 224.224 170.38 224.224L169.13 224.29C169.065 224.29 168.933 224.224 168.933 224.093L169.854 217.13C169.854 217.064 169.985 216.933 170.051 216.933L171.366 216.867Z" fill="white"/>
<path d="M179.978 223.501C179.978 223.632 179.846 223.698 179.781 223.698L178.532 223.764C178.4 223.764 178.334 223.698 178.334 223.566L178.926 219.166L174.521 223.041L174.389 223.764C174.389 223.895 174.258 223.961 174.192 223.961L172.943 224.026C172.811 224.026 172.746 223.961 172.746 223.829L173.666 216.867C173.666 216.801 173.798 216.67 173.929 216.67L175.178 216.604C175.31 216.604 175.376 216.67 175.376 216.801L174.784 221.268L179.189 217.393L179.321 216.604C179.321 216.539 179.452 216.407 179.583 216.407L180.833 216.342C180.964 216.342 181.03 216.407 181.03 216.539L179.978 223.501ZM179.057 212.27C179.123 212.138 179.189 212.073 179.321 212.073H179.912C180.044 212.073 180.109 212.138 180.109 212.27C179.978 213.452 179.058 214.503 177.611 214.634C176.165 214.7 175.507 213.715 175.639 212.532C175.639 212.401 175.77 212.335 175.902 212.335H176.493C176.625 212.335 176.691 212.401 176.691 212.532C176.691 213.123 176.954 213.583 177.743 213.517C178.466 213.32 178.926 212.861 179.057 212.27Z" fill="white"/>
<path d="M193.784 215.685C193.981 215.685 194.047 215.816 193.85 216.013L190.628 219.363L193.061 222.648C193.192 222.779 193.127 222.976 192.929 222.976L191.417 223.042C191.22 223.042 191.154 222.976 191.088 222.845L189.116 220.217L188.195 220.283L187.801 223.042C187.801 223.173 187.669 223.239 187.538 223.239L186.354 223.305C186.223 223.305 186.157 223.239 186.157 223.108L187.078 216.145C187.078 216.079 187.209 215.948 187.341 215.948L188.59 215.882C188.721 215.882 188.787 215.948 188.787 216.079L188.393 218.772L189.313 218.707L191.943 215.882C192.075 215.751 192.14 215.685 192.338 215.685H193.784Z" fill="white"/>
<path d="M195.624 217.327C195.493 217.393 195.361 217.393 195.361 217.262L195.098 216.473C195.098 216.342 195.098 216.276 195.23 216.21C196.019 215.685 197.136 215.357 198.188 215.291C198.912 215.225 199.766 215.357 200.292 215.948C200.621 216.342 200.753 216.933 200.621 217.853L200.029 222.319C200.029 222.451 199.898 222.516 199.832 222.516L198.78 222.582C198.714 222.582 198.583 222.516 198.583 222.385V222.188H198.517C197.794 222.648 197.137 222.779 196.413 222.845C195.756 222.911 195.164 222.714 194.77 222.385C194.375 222.057 194.112 221.465 194.244 220.743C194.375 219.758 195.033 219.166 195.887 218.772C196.874 218.378 198.057 218.181 198.977 218.05V217.853C199.043 217.327 199.043 216.999 198.846 216.736C198.649 216.408 198.254 216.342 197.794 216.408C197.005 216.605 196.282 216.999 195.624 217.327ZM198.583 221.268L198.846 219.364C197.136 219.561 195.887 219.955 195.822 220.809C195.756 221.531 196.413 221.794 197.136 221.794C197.531 221.728 198.057 221.531 198.583 221.268Z" fill="white"/>
<path d="M208.839 213.255C207.985 213.912 206.67 214.174 205.683 214.765C205.026 215.159 204.5 215.751 204.171 216.473C204.763 216.079 205.618 215.619 206.933 215.553C207.919 215.488 208.774 215.816 209.3 216.473C209.694 216.998 209.891 217.787 209.76 218.772C209.628 219.823 209.168 220.677 208.445 221.333C207.656 222.056 206.604 222.45 205.486 222.516C204.303 222.581 203.448 222.253 202.922 221.596C202.199 220.742 202.067 219.429 202.264 218.049C202.527 216.276 203.316 214.831 204.566 213.977C205.749 213.123 206.735 213.058 207.656 212.467C208.116 212.138 208.248 211.875 208.313 211.481C208.313 211.35 208.445 211.284 208.511 211.284L209.628 211.219C209.694 211.219 209.826 211.284 209.76 211.416C209.76 212.072 209.497 212.729 208.839 213.255ZM203.842 218.246C203.777 219.1 203.777 219.888 204.171 220.479C204.434 220.939 204.96 221.268 205.749 221.202C206.472 221.136 207.064 220.939 207.524 220.479C207.919 220.085 208.248 219.494 208.313 218.903C208.379 218.246 208.248 217.721 207.985 217.393C207.656 216.933 207.064 216.736 206.472 216.801C205.486 216.867 204.697 217.195 204.04 217.852L203.842 218.246Z" fill="white"/>
<path d="M216.86 220.02C216.991 219.955 217.123 219.955 217.123 220.086L217.452 220.874C217.517 220.94 217.452 221.071 217.32 221.137C216.663 221.597 215.545 221.991 214.493 222.057C213.309 222.122 212.323 221.794 211.797 221.071C211.271 220.415 211.008 219.495 211.14 218.313C211.271 217.262 211.797 216.276 212.52 215.619C213.244 214.963 214.164 214.503 215.282 214.437C216.531 214.371 217.386 214.765 217.846 215.488C218.306 216.145 218.372 217.13 218.175 218.247C218.109 218.378 218.043 218.51 217.912 218.51L212.783 218.772C212.783 219.364 212.915 219.758 213.178 220.086C213.507 220.546 214.098 220.743 214.822 220.677C215.611 220.677 216.268 220.415 216.86 220.02ZM216.728 217.459C216.794 216.933 216.663 216.539 216.4 216.211C216.137 215.882 215.742 215.685 215.085 215.751C214.493 215.751 213.901 216.014 213.572 216.408C213.244 216.736 213.046 217.196 212.915 217.656L216.728 217.459Z" fill="white"/>
<path d="M221.527 219.298C221.264 220.086 220.87 220.809 220.41 221.334C220.278 221.531 220.147 221.531 219.949 221.597L218.963 221.662C218.766 221.662 218.7 221.531 218.897 221.268C219.423 220.611 219.752 219.889 220.081 219.166C220.541 217.984 220.738 216.67 220.936 215.291L221.067 214.503C221.067 214.371 221.199 214.24 221.33 214.24L227.05 213.911C227.116 213.911 227.248 213.977 227.248 214.108L226.327 221.071C226.327 221.203 226.196 221.268 226.13 221.268L224.881 221.334C224.749 221.334 224.683 221.268 224.683 221.137L225.472 215.488L222.645 215.619C222.185 216.802 221.922 218.181 221.527 219.298Z" fill="white"/>
<path d="M230.468 216.736L232.441 216.605C233.361 216.539 234.085 216.736 234.479 217.261C234.742 217.59 234.874 218.05 234.808 218.641C234.742 219.363 234.414 219.823 233.953 220.217C233.427 220.677 232.704 220.874 231.849 220.94L228.365 221.137C228.233 221.137 228.167 221.071 228.167 220.94L229.088 213.977C229.088 213.911 229.219 213.78 229.351 213.78L230.6 213.714C230.732 213.714 230.797 213.78 230.797 213.911L230.468 216.736ZM233.098 218.115C232.901 217.918 232.507 217.853 231.981 217.853L230.403 217.918L230.14 219.823L231.849 219.758C232.244 219.758 232.638 219.626 232.967 219.429C233.164 219.232 233.296 219.035 233.362 218.707C233.296 218.51 233.23 218.247 233.098 218.115Z" fill="white"/>
<path d="M244.078 213.058C244.144 213.058 244.275 213.123 244.275 213.255L243.289 220.152C243.289 220.283 243.157 220.349 243.092 220.349L241.842 220.415C241.711 220.415 241.645 220.349 241.645 220.218L242.04 217.459L238.358 217.656L237.963 220.415C237.963 220.546 237.832 220.612 237.7 220.612L236.451 220.677C236.319 220.677 236.254 220.612 236.254 220.48L237.174 213.518C237.174 213.452 237.306 213.32 237.437 213.32L238.686 213.255C238.818 213.255 238.884 213.32 238.884 213.452L238.489 216.145L242.171 215.948L242.566 213.255C242.566 213.189 242.697 213.058 242.829 213.058H244.078Z" fill="white"/>
<path d="M247.627 215.817L249.6 215.685C250.52 215.62 251.244 215.817 251.638 216.342C251.901 216.671 252.033 217.13 251.967 217.722C251.901 218.444 251.572 218.904 251.112 219.298C250.586 219.758 249.863 219.955 249.008 220.021L245.524 220.218C245.392 220.218 245.326 220.152 245.326 220.021L246.247 213.058C246.247 212.992 246.378 212.861 246.51 212.861L247.759 212.795C247.89 212.795 247.956 212.861 247.956 212.992L247.627 215.817ZM250.257 217.196C250.06 216.999 249.666 216.933 249.14 216.933L247.562 216.999L247.299 218.904L249.008 218.838C249.403 218.838 249.797 218.707 250.126 218.51C250.323 218.313 250.455 218.116 250.52 217.787C250.455 217.59 250.389 217.393 250.257 217.196ZM255.189 212.467C255.32 212.467 255.386 212.532 255.386 212.664L254.465 219.626C254.465 219.758 254.334 219.824 254.202 219.824L252.953 219.889C252.887 219.889 252.756 219.824 252.756 219.692L253.676 212.729C253.676 212.664 253.808 212.532 253.874 212.532L255.189 212.467Z" fill="white"/>
<path d="M263.801 219.1C263.801 219.232 263.669 219.297 263.604 219.297L262.354 219.363C262.223 219.363 262.157 219.297 262.157 219.166L262.749 214.765L258.344 218.64L258.212 219.363C258.212 219.494 258.081 219.56 258.015 219.56L256.766 219.626C256.634 219.626 256.568 219.56 256.568 219.429L257.489 212.466C257.489 212.401 257.62 212.269 257.752 212.269L259.001 212.204C259.133 212.204 259.198 212.269 259.198 212.401L258.607 216.867L263.012 212.992L263.143 212.204C263.143 212.138 263.275 212.007 263.406 212.007L264.656 211.941C264.787 211.941 264.853 212.007 264.853 212.138L263.801 219.1ZM262.88 207.869C262.946 207.738 263.012 207.672 263.143 207.672H263.735C263.867 207.672 263.932 207.738 263.932 207.869C263.801 209.051 262.88 210.102 261.434 210.233C259.987 210.299 259.33 209.314 259.461 208.132C259.461 208 259.593 207.935 259.724 207.935H260.316C260.448 207.935 260.513 208 260.513 208.132C260.513 208.723 260.776 209.183 261.565 209.117C262.354 208.92 262.749 208.46 262.88 207.869Z" fill="white"/>
<path fill-rule="evenodd" clip-rule="evenodd" d="M341.049 156.245L337.762 180.875L326.98 154.077L322.706 154.274C320.997 154.34 319.617 155.654 319.354 157.361L313.963 197.557L318.236 197.36C319.945 197.295 321.326 195.981 321.589 194.273L324.876 169.643L335.658 196.441L339.931 196.244C341.641 196.178 343.021 194.864 343.284 193.157L348.675 152.961L344.402 153.158C342.627 153.289 341.246 154.537 341.049 156.245Z" fill="white"/>
<path fill-rule="evenodd" clip-rule="evenodd" d="M392 150.662L373.263 151.647C371.554 151.713 370.173 153.026 369.91 154.734L369.45 158.018L376.748 157.624L371.817 194.602L376.09 194.405C377.799 194.339 379.18 193.025 379.443 191.318L383.979 157.296L388.253 157.098C389.962 157.033 391.343 155.719 391.606 154.012L392 150.662Z" fill="white"/>
<path fill-rule="evenodd" clip-rule="evenodd" d="M367.412 173.584L367.872 170.3L357.419 170.826L359.062 158.543L362.941 158.346C364.651 158.281 366.031 156.967 366.294 155.259L366.754 151.975L355.644 152.567C353.934 152.632 352.554 153.946 352.291 155.654L346.9 195.85L365.637 194.864C367.346 194.799 368.727 193.485 368.99 191.777L369.45 188.493L354.986 189.282L356.63 176.999L364.19 176.605C365.834 176.54 367.215 175.226 367.412 173.584Z" fill="white"/>
<path fill-rule="evenodd" clip-rule="evenodd" d="M239.146 180.283L239.607 176.999L229.482 177.525L231.126 165.243L242.631 164.652C244.34 164.586 245.721 163.272 245.984 161.565L246.444 158.281L227.707 159.266C225.998 159.332 224.617 160.645 224.354 162.353L218.963 202.549L237.7 201.564C239.409 201.498 240.79 200.184 241.053 198.477L241.513 195.193L227.05 195.981L228.693 183.699L235.859 183.305C237.568 183.239 238.949 181.991 239.146 180.283Z" fill="white"/>
<path fill-rule="evenodd" clip-rule="evenodd" d="M163.87 161.696L157.559 162.025C153.943 162.222 150.919 164.98 150.458 168.527L146.448 198.346C145.791 203.009 149.604 207.147 154.337 206.884L160.649 206.556C164.264 206.358 167.289 203.6 167.749 200.053L171.759 170.235C172.351 165.571 168.604 161.433 163.87 161.696ZM164.396 171.285L160.846 197.951C160.649 199.396 159.465 200.447 158.085 200.513L156.901 200.579C155.06 200.644 153.548 199.068 153.811 197.229L157.361 170.563C157.559 169.118 158.742 168.067 160.123 168.001L161.306 167.936C163.213 167.87 164.659 169.446 164.396 171.285Z" fill="white"/>
<path fill-rule="evenodd" clip-rule="evenodd" d="M262.945 157.427L250.323 158.084L244.537 201.235L248.811 201.038C250.52 200.973 251.901 199.659 252.164 197.951L256.7 163.929L259.658 163.798C261.894 163.666 263.669 165.637 263.34 167.804L261.631 180.612C261.433 182.32 259.987 183.567 258.278 183.699L255.977 183.83L254.925 183.896L258.278 197.689C258.672 199.331 260.184 200.513 261.894 200.382L266.167 200.184L263.537 189.413C266.101 188.953 267.876 186.983 268.271 184.421L270.703 166.031C271.492 161.302 267.679 157.164 262.945 157.427Z" fill="white"/>
<path fill-rule="evenodd" clip-rule="evenodd" d="M138.099 163.995L125.476 164.652L119.691 207.803L123.964 207.606C125.673 207.541 127.054 206.227 127.317 204.519L131.853 170.497L134.812 170.366C137.047 170.235 138.822 172.205 138.493 174.372L136.784 187.18C136.587 188.888 135.14 190.136 133.431 190.267L130.078 190.464C129.684 193.617 132.248 196.441 135.469 196.244L138.099 196.112C140.86 195.981 143.095 193.879 143.424 191.186L145.922 172.599C146.58 167.804 142.766 163.732 138.099 163.995Z" fill="white"/>
<path fill-rule="evenodd" clip-rule="evenodd" d="M218.108 159.791C215.479 160.185 214.295 161.368 213.375 163.601C212.915 164.783 205.88 185.341 205.88 185.341L203.711 196.506L204.5 185.406C204.5 185.406 203.119 163.929 203.053 163.601C202.856 162.156 201.804 160.776 199.437 160.908C199.109 160.908 198.057 161.039 197.794 161.039C195.032 161.171 193.981 162.55 193.06 164.98C192.731 165.834 185.434 186.983 185.434 186.983L183.199 198.083L183.988 187.048C183.988 187.048 182.738 166.425 182.673 165.702C182.541 163.404 181.358 162.09 178.991 162.156C178.071 162.156 174.718 162.55 174.718 162.55L177.873 204.782C177.873 204.782 182.213 204.585 183.462 204.519C186.223 204.322 187.341 202.943 188.064 200.644C188.458 199.265 195.558 179.035 195.558 179.035L197.991 167.279L196.873 178.97L198.648 203.6C198.648 203.6 202.396 203.403 203.711 203.337C206.143 203.206 207.59 201.826 208.444 199.528C208.904 198.148 222.776 159.594 222.776 159.594C222.776 159.594 219.095 159.66 218.108 159.791Z" fill="white"/>
<path d="M74.4589 34.8028L45.466 53.8499C33.435 61.6658 30.0163 77.8887 37.9055 90.1052C40.601 94.1773 44.4141 97.3956 48.7532 99.366C52.6978 101.205 56.9712 101.993 61.1787 101.796C65.715 101.533 70.1856 100.154 74.1302 97.527L103.32 78.3485C110.881 73.3568 115.286 64.9498 115.088 55.886C114.957 51.0914 113.511 46.3624 110.749 42.0932C102.663 30.1395 86.4242 26.9212 74.4589 34.8028ZM97.5349 56.3457C97.6006 59.367 96.1543 62.1913 93.656 63.8332L64.4659 83.0118C61.9677 84.6538 58.812 84.9165 56.0507 83.6029C54.5386 82.9461 53.2895 81.8295 52.4349 80.5159C49.8051 76.4438 50.9885 71.058 54.9988 68.4308L84.0575 49.318C85.3723 48.3985 86.8844 47.9387 88.3965 47.873C91.355 47.7417 94.3792 49.0553 96.0885 51.6168C97.0089 53.0618 97.5349 54.7037 97.5349 56.3457Z" fill="#FBC300"/>
<path d="M259.806 231.759C248.758 232.342 239.08 238.831 232.188 247.485C225.485 255.901 217.361 263.425 207.853 269.674C159.728 301.135 94.8394 287.605 63.1511 239.461C36.1962 198.411 -17.1218 72.2404 49.5421 28.4976C59.9954 21.6013 71.1718 18.2516 82.6769 17.6605C144.279 14.4422 215.15 90.171 237.897 124.719C242.584 131.858 250.313 136.772 258.841 136.322L263.406 136.081C260.447 128.856 256.831 121.829 252.427 115.129C217.846 62.5198 116.272 -36.0656 39.9436 13.9824C-36.3189 64.0304 13.9092 196.375 48.556 249.051C73.2098 286.554 115.22 306.061 157.23 303.827C178.136 302.711 199.043 296.274 217.846 283.992C238.029 270.659 252.887 252.335 261.959 231.645L259.806 231.759Z" fill="#FBC300"/>
<path d="M206.726 234.555C199.697 234.925 193.115 237.816 187.134 241.527C177.521 247.49 166.368 251.212 154.272 251.809C115.877 253.845 83.0056 224.223 81.0333 185.932C79.061 147.641 108.646 114.735 146.974 112.765C164.464 111.832 180.816 117.502 193.616 127.581C201.763 133.996 211.442 138.916 221.798 138.382L225.669 138.183C209.693 111.188 179.583 93.6519 146.119 95.4252C98.1266 97.9211 61.1788 138.971 63.677 186.917C66.1753 234.863 107.199 271.71 155.192 269.214C182.278 267.769 205.814 254.108 220.804 233.813L206.726 234.555Z" fill="#FBC300"/>
<path d="M360.312 131.089C355.988 131.307 352.337 127.97 351.766 123.679C345.474 76.3673 305.445 40.3263 257.693 39.0372C253.375 38.9206 249.686 35.6358 249.468 31.3218C307.52 28.3005 357.288 73.0941 360.312 131.089Z" fill="#FBC300"/>
<path d="M329.083 132.666C324.76 132.883 321.126 129.541 320.396 125.275C315.24 95.1127 289.837 72.2942 259.266 70.3176C254.955 70.0389 251.264 66.7686 251.046 62.4539C271.492 61.4031 290.492 68.6935 304.627 81.3697C318.762 94.1773 328.032 112.305 329.083 132.666Z" fill="#FBC300"/>
<path d="M391.54 129.447C387.216 129.665 383.556 126.332 383.068 122.03C375.748 57.5152 321.036 8.30426 256.047 7.82747C251.728 7.79579 248.042 4.50327 247.825 0.18952C323.101 -3.75127 387.595 54.244 391.54 129.447Z" fill="#FBC300"/>
</svg>
